<svg width="173" height="175" viewBox="0 0 173 175" fill="none" xmlns="http://www.w3.org/2000/svg">
<rect width="173" height="175" fill="#E7E6E6"/>
<path d="M66.2836 73.19H68.7736V100.37H66.2836V73.19ZM54.4636 75.29C58.4836 75.29 61.3636 78.98 61.3636 84.74C61.3636 90.53 58.4836 94.22 54.4636 94.22C50.4736 94.22 47.5936 90.53 47.5936 84.74C47.5936 78.98 50.4736 75.29 54.4636 75.29ZM54.4636 77.54C51.8236 77.54 49.9636 80.36 49.9636 84.74C49.9636 89.15 51.8236 92.03 54.4636 92.03C57.1336 92.03 58.9636 89.15 58.9636 84.74C58.9636 80.36 57.1336 77.54 54.4636 77.54ZM75.7312 75.86H88.2112V93.53H75.7312V75.86ZM85.7812 77.87H78.1612V91.52H85.7812V77.87ZM93.8812 73.19H96.3712V100.37H93.8812V73.19ZM108.969 77.09H110.979V81.5C110.979 87.23 107.529 92.99 103.209 95.12L101.769 93.14C105.699 91.28 108.969 86.18 108.969 81.5V77.09ZM109.449 77.09H111.459V81.5C111.459 86.09 114.729 90.77 118.719 92.48L117.309 94.46C112.929 92.42 109.449 87.14 109.449 81.5V77.09ZM102.669 75.98H117.819V78.08H102.669V75.98ZM121.479 73.22H123.969V100.34H121.479V73.22Z" fill="black"/>
</svg>
